HIERARCHY
ROOT Pelvis
{
	OFFSET 0.000000 0.000000 0.000000
	CHANNELS 6 Xposition Yposition Zposition Zrotation Yrotation Xrotation 
	JOINT Left_hip
	{
		OFFSET 0.069463 -0.088608 -0.009542
		CHANNELS 3 Zrotation Yrotation Xrotation
		JOINT Left_knee
		{
			OFFSET 0.030639 -0.359740 -0.005288
			CHANNELS 3 Zrotation Yrotation Xrotation
			JOINT Left_ankle
			{
				OFFSET -0.011068 -0.376034 -0.042462
				CHANNELS 3 Zrotation Yrotation Xrotation
				JOINT Left_foot
				{
					OFFSET 0.023192 -0.053321 0.111332
					CHANNELS 3 Zrotation Yrotation Xrotation
					End Site
					{
						OFFSET 0.000000 0.000000 0.000000
					}
				}
			}
		}
	}
	JOINT Right_hip
	{
		OFFSET -0.067438 -0.088025 -0.006263
		CHANNELS 3 Zrotation Yrotation Xrotation
		JOINT Right_knee
		{
			OFFSET -0.035962 -0.366229 -0.008063
			CHANNELS 3 Zrotation Yrotation Xrotation
			JOINT Right_ankle
			{
				OFFSET 0.013608 -0.375719 -0.040481
				CHANNELS 3 Zrotation Yrotation Xrotation
				JOINT Right_foot
				{
					OFFSET -0.021034 -0.045527 0.114617
					CHANNELS 3 Zrotation Yrotation Xrotation
					End Site
					{
						OFFSET 0.000000 0.000000 0.000000
					}
				}
			}
		}
	}
	JOINT Spine1
	{
		OFFSET -0.002610 0.101823 -0.019986
		CHANNELS 3 Zrotation Yrotation Xrotation
		JOINT Spine2
		{
			OFFSET 0.004114 0.128714 -0.000938
			CHANNELS 3 Zrotation Yrotation Xrotation
			JOINT Spine3
			{
				OFFSET 0.002191 0.048470 0.027684
				CHANNELS 3 Zrotation Yrotation Xrotation
				JOINT Neck
				{
					OFFSET -0.002856 0.198873 -0.044022
					CHANNELS 3 Zrotation Yrotation Xrotation
					JOINT Head
					{
						OFFSET 0.002981 0.062960 0.049860
						CHANNELS 3 Zrotation Yrotation Xrotation
						End Site
						{
							OFFSET 0.000000 0.000000 0.000000
						}
					}
				}
				JOINT Left_collar
				{
					OFFSET 0.073708 0.112550 -0.033440
					CHANNELS 3 Zrotation Yrotation Xrotation
					JOINT Left_shoulder
					{
						OFFSET 0.083291 0.030786 -0.008013
						CHANNELS 3 Zrotation Yrotation Xrotation
						JOINT Left_elbow
						{
							OFFSET 0.245601 -0.011792 -0.027873
							CHANNELS 3 Zrotation Yrotation Xrotation
							JOINT Left_wrist
							{
								OFFSET 0.232258 0.008622 -0.000487
								CHANNELS 3 Zrotation Yrotation Xrotation
								JOINT Left_palm
								{
									OFFSET 0.077300 -0.009457 -0.012851
									CHANNELS 3 Zrotation Yrotation Xrotation
									End Site
									{
										OFFSET 0.000000 0.000000 0.000000
									}
								}
							}
						}
					}
				}
				JOINT Right_collar
				{
					OFFSET -0.075339 0.110574 -0.037874
					CHANNELS 3 Zrotation Yrotation Xrotation
					JOINT Right_shoulder
					{
						OFFSET -0.086522 0.031207 -0.009986
						CHANNELS 3 Zrotation Yrotation Xrotation
						JOINT Right_elbow
						{
							OFFSET -0.237313 -0.011478 -0.019859
							CHANNELS 3 Zrotation Yrotation Xrotation
							JOINT Right_wrist
							{
								OFFSET -0.237599 0.007976 -0.003742
								CHANNELS 3 Zrotation Yrotation Xrotation
								JOINT Right_palm
								{
									OFFSET -0.076920 -0.006943 -0.009920
									CHANNELS 3 Zrotation Yrotation Xrotation
									End Site
									{
										OFFSET 0.000000 0.000000 0.000000
									}
								}
							}
						}
					}
				}
			}
		}
	}
}
MOTION
Frames: 12
Frame Time: 0.100000
0.000000 0.000000 0.000000 175.886338 23.844686 -26.381498 1.986093 5.725261 15.551409 1.191838 -8.429319 1.910733 7.747036 7.602567 -6.330804 -13.347895 9.470815 -0.556642 -0.969054 -4.271689 15.888389 -1.321560 0.886878 0.791143 -8.867021 -4.418259 -7.598830 17.577651 -7.853642 10.705332 0.904682 0.071319 10.426569 0.631256 -4.257903 6.513861 0.207907 -2.874917 -1.827210 1.134912 -11.320784 7.485398 -0.739586 -10.960181 -2.763307 -32.058058 -1.120261 6.286809 -50.507384 -6.520014 7.867797 1.757891 -16.074736 16.273670 -14.830824 4.124122 0.135034 -8.246036 -3.251114 -10.224204 31.443636 6.808091 3.780296 48.817646 7.011263 7.300330 -8.456770 7.344138 -7.685471 9.060599 -4.635335 -2.591970 11.288298 8.505577 -4.350228 
0.001233 0.000353 -0.001269 175.757753 23.939329 -26.640902 2.210684 5.886818 15.492368 1.128916 -8.732616 2.220602 7.227603 7.614791 -6.395774 -12.702243 9.345323 -1.023106 -0.978463 -4.153909 15.671260 -1.227311 0.755379 1.908441 -9.191784 -4.941679 -9.863045 17.743601 -8.077476 10.751449 0.883851 -0.103437 10.535518 0.758625 -4.328627 6.273608 0.227048 -3.087825 -1.619118 1.082583 -11.252424 7.870738 -1.024506 -11.279192 -2.153690 -32.142015 -0.425925 6.256529 -50.728445 -6.277731 7.779883 1.931544 -16.617692 15.917990 -14.502666 4.112691 -0.301199 -8.052206 -3.011316 -9.989319 31.800070 5.814066 3.621132 49.604263 6.034194 7.525716 -8.906898 8.717036 -7.651488 9.018558 -4.447049 -3.211625 10.898919 8.340577 -4.043422 
-0.000069 -0.000949 0.003099 175.535369 24.258777 -27.171895 2.716482 6.269837 16.578008 1.145115 -9.174430 1.689741 6.665325 7.487945 -6.306938 -12.347310 9.027381 -1.328643 -1.124384 -4.564212 16.982810 -1.118152 0.412260 1.651271 -10.241057 -5.786576 -12.613960 18.611496 -8.565560 11.297132 0.925813 -0.216080 9.676954 0.788105 -4.545752 6.303695 0.155055 -3.289347 -1.416865 0.823714 -11.479599 9.261280 -1.329266 -11.682732 -1.367661 -32.055268 0.051381 6.449809 -50.799021 -6.110544 7.646637 1.839104 -16.088037 16.178057 -14.814773 4.246930 -0.886533 -7.596971 -2.651709 -9.565436 31.989589 5.011501 3.762868 50.092322 5.016775 7.326723 -8.527683 7.803526 -7.083578 9.463014 -4.652830 -3.586329 10.294535 8.114976 -3.625188 
-0.002677 -0.002095 0.010945 175.517120 24.603389 -27.674033 2.885448 6.461768 17.964192 1.299450 -9.663825 1.153392 6.559859 7.587339 -6.352626 -12.389355 8.828145 -1.667799 -1.170429 -4.785017 18.300893 -1.319355 0.133954 1.637459 -11.130582 -6.661328 -14.270354 19.327140 -8.948803 11.589838 0.896592 -0.216622 8.716945 0.668816 -4.557886 6.267475 -0.120119 -3.354415 -1.197176 0.694473 -12.253529 11.286611 -1.394385 -12.233691 -0.204749 -31.792081 0.701766 6.543839 -50.862355 -6.260998 7.470824 1.982847 -16.076920 16.366952 -15.133382 4.410254 -1.356649 -7.137195 -2.338865 -9.074259 31.765546 4.105529 3.848107 50.861325 3.851135 7.166501 -8.312792 6.779676 -6.659718 9.972487 -4.975867 -4.000614 9.669933 7.920816 -3.209075 
-0.007141 -0.003302 0.023823 175.529138 25.311711 -28.842102 2.981983 6.448639 19.580732 1.371382 -10.448319 2.055310 6.962710 7.818783 -6.912444 -12.753170 8.982935 -2.312186 -1.402040 -5.312797 19.964523 -1.652062 -1.245574 3.027566 -12.353997 -8.360709 -15.910348 20.111404 -9.373017 11.667777 0.690225 0.046397 7.885739 0.384891 -4.424279 6.789005 -0.554037 -3.305924 -0.689325 -0.082923 -14.503949 15.298030 -1.196998 -13.781153 1.335634 -31.064111 1.159035 7.110064 -51.040114 -6.694736 6.969533 2.301753 -17.292946 16.233696 -15.702043 4.852940 -2.813196 -6.341125 -1.880199 -8.242665 30.938274 3.472861 4.333746 53.028137 2.300873 7.125534 -8.351029 8.233432 -5.683751 10.853248 -5.259224 -5.128179 8.702116 7.757807 -2.460582 
-0.016258 -0.005444 0.043495 175.756629 25.625766 -30.772285 3.714770 7.062925 24.013873 1.248818 -10.784060 0.675177 8.877369 7.414000 -7.757500 -15.776981 9.366153 -1.198657 -3.379911 -6.850307 24.024585 -0.765029 -1.369068 0.840573 -12.113598 -6.074492 -8.853005 22.057426 -8.409533 12.671327 0.506201 0.456813 5.253722 0.716519 -3.864894 8.323506 -1.066220 -2.893865 -0.744428 -3.854636 -17.285729 25.606703 -5.916552 -17.001135 9.370293 -31.829026 2.325005 7.792648 -50.153461 -8.276954 6.264427 2.603234 -14.647340 15.163015 -18.758635 5.389209 -4.582650 -6.008586 -2.267999 -7.110236 33.497649 4.905579 4.567739 48.208701 6.836310 5.709124 -5.521061 -3.064941 -7.912782 11.075001 -7.673602 -1.354312 9.921273 8.369874 -2.106504 
-0.013282 -0.003651 0.020795 176.113991 22.058829 -24.759029 1.713748 6.535029 15.530718 1.837982 -7.677013 2.562226 7.669160 8.241505 -7.301497 -13.428081 8.944515 -0.583509 -2.195391 -4.919359 14.064027 -0.691908 -2.243415 4.058546 -11.132208 -3.570945 -8.076657 21.186961 -10.942310 12.589554 2.879362 -0.400998 10.557345 1.251676 -3.121714 4.036492 -0.022990 -2.067433 -2.702269 -0.597195 -19.370734 16.217293 -3.960408 -18.446397 4.821325 -30.829489 1.937791 5.796585 -53.315942 -5.789154 8.094587 3.301384 -17.244424 15.355820 -17.250886 3.443374 -3.116280 -5.744874 -1.803200 -8.798473 28.910298 9.462277 1.376663 42.797042 15.010761 3.516561 -7.795359 1.331914 -11.855808 8.112530 -5.318552 -1.305551 8.689897 7.539082 -2.508144 
-0.004582 0.003484 -0.018700 176.638907 18.264809 -16.816516 0.240608 4.347349 3.748460 1.101423 -5.053230 4.689786 7.623128 9.839310 -7.041952 -10.400999 9.429439 0.649461 -2.384303 -0.106033 -6.508498 0.148849 -3.355958 20.674533 -9.701518 -2.389386 -7.751084 19.191794 -12.481507 11.248472 3.287593 -2.386054 19.143074 1.586736 -2.459074 1.630852 0.700739 -1.336854 -3.985734 6.130359 -19.850333 1.360453 1.264645 -19.999945 -4.086553 -27.444158 -4.095831 6.107455 -54.587153 -4.869695 11.141480 3.125004 -20.671530 15.551021 -16.084323 1.029251 -2.511423 -4.852489 -0.965772 -11.819043 21.151586 19.264319 -1.650312 36.729516 26.031409 -0.232405 -9.755594 4.773110 -16.245832 6.200881 -3.484172 -2.204441 6.284708 6.110021 -3.950627 
-0.001748 0.007186 -0.029871 176.941378 12.626097 -18.894949 1.784447 7.040003 6.946386 1.064005 -4.984203 3.340568 -1.546901 12.349312 -8.964740 0.222245 8.287499 -0.140945 -1.910477 0.746729 -12.926365 -1.363864 -3.930940 33.176843 -3.069928 -7.958889 -8.416359 12.133867 -7.591283 4.170271 4.503245 -5.068171 27.747679 -0.163450 -0.561365 4.830897 2.177710 -0.434078 -3.062009 5.578963 -20.357461 -4.980952 2.663448 -17.444069 -9.442000 -25.996966 -11.384583 4.803157 -53.776925 -3.975799 12.747876 4.622537 -19.554004 12.468757 -6.454815 -2.923529 -2.094580 -0.723756 0.438537 -13.769906 13.062163 30.504541 -3.696701 23.570313 36.006464 -9.667910 -5.345138 0.203738 -24.637363 -3.180561 -4.155127 -1.394786 2.036931 4.007877 -4.654074 
0.004938 0.002137 -0.012136 176.979926 10.883888 -15.226412 2.686578 7.548478 4.356085 1.145534 -3.869236 3.462539 -2.449683 12.018832 -9.164891 1.328954 8.692198 -0.720028 -3.417984 -0.330628 -19.391083 -2.161825 -7.379127 32.471152 -3.394559 -9.686177 -10.050471 10.819523 -7.968588 4.878692 6.039434 -5.827483 28.241210 -1.068777 1.115158 2.889878 2.304706 0.407940 -3.157609 5.863622 -20.999961 -6.159789 2.611311 -16.344401 -10.126718 -24.815134 -9.973927 3.278728 -55.075063 -4.309883 11.163542 6.757153 -18.485696 7.476704 -5.449472 -2.703229 -5.691348 0.977358 0.865262 -11.755509 9.386213 31.669590 -5.453661 19.692985 40.106121 -13.430951 -5.167291 -0.274605 -26.538694 -4.235614 -4.185075 -0.598614 -0.026749 3.444209 -3.400204 
0.018632 -0.000539 0.029441 176.995793 10.309589 -13.502757 4.583056 8.021883 5.060399 1.233178 -4.095390 4.081143 -3.475835 12.324897 -11.311966 2.269029 8.152537 0.674335 -5.634065 -0.309073 -21.561981 -1.645353 -6.518085 23.511506 -2.403777 -8.481106 -10.314615 9.421258 -9.143925 6.469723 6.914548 -5.960718 27.961176 -1.349841 1.785710 3.183681 2.548889 1.092985 -3.490127 6.082838 -20.922024 -6.864752 3.308084 -15.568803 -11.828281 -24.343974 -10.389695 3.289313 -54.694950 -3.297678 12.073571 6.301845 -19.491637 6.923505 -4.894292 -3.798978 -8.416924 0.700176 0.993287 -11.054427 7.690747 33.215399 -5.590429 14.719206 41.897250 -17.022876 -4.245950 -0.051228 -27.275296 -5.238896 -3.905768 -0.854781 0.151708 3.437922 -4.191317 
0.040783 0.000994 0.095902 177.544362 10.736554 -12.751578 7.163650 9.426822 8.456783 1.619242 -5.064620 4.351205 -4.407286 12.212334 -13.982412 2.783411 8.240816 1.550077 -8.146428 -2.168381 -22.528679 -1.741835 -7.856468 17.769552 -1.541406 -8.376822 -10.756699 8.563333 -10.265635 7.159743 7.499116 -6.127927 27.352774 -1.977672 2.547992 3.395010 2.549490 1.526579 -3.865401 6.050366 -20.885978 -7.051191 3.119019 -14.980535 -12.900897 -24.071287 -9.869871 3.173282 -54.566476 -2.317343 11.820019 5.369784 -18.843229 9.485477 -5.246319 -3.996600 -6.619573 0.699998 1.047709 -11.325375 6.624078 33.876539 -5.736236 11.977061 42.923280 -19.712597 -3.447341 -0.619811 -26.810720 -5.705103 -4.025868 1.094472 0.239655 3.577396 -4.869920 
